<svg width="124" height="47" viewBox="0 0 124 47" fill="none" xmlns="http://www.w3.org/2000/svg">
<path d="M15.688 0.0559998C18.632 0.0559998 21.1493 0.695999 23.24 1.976C25.3733 3.256 26.9947 5.06933 28.104 7.416C29.256 9.72 29.832 12.4293 29.832 15.544V18.936H6.344C6.42933 22.8187 7.41067 25.784 9.288 27.832C11.208 29.8373 13.8747 30.84 17.288 30.84C19.464 30.84 21.384 30.648 23.048 30.264C24.7547 29.8373 26.504 29.24 28.296 28.472V33.4C26.5467 34.168 24.8187 34.7227 23.112 35.064C21.4053 35.448 19.3787 35.64 17.032 35.64C13.7893 35.64 10.9093 34.9787 8.392 33.656C5.91733 32.3333 3.976 30.3707 2.568 27.768C1.20267 25.1227 0.52 21.9013 0.52 18.104C0.52 14.3493 1.13867 11.128 2.376 8.44C3.656 5.752 5.42667 3.68267 7.688 2.232C9.992 0.781333 12.6587 0.0559998 15.688 0.0559998ZM15.624 4.664C12.936 4.664 10.8027 5.53866 9.224 7.288C7.688 8.99467 6.77067 11.384 6.472 14.456H23.944C23.944 12.4933 23.6453 10.7867 23.048 9.336C22.4507 7.88533 21.5333 6.75466 20.296 5.944C19.1013 5.09066 17.544 4.664 15.624 4.664ZM85.029 0.695999V30.328H90.021V46.84H84.389V35H38.565V0.695999H44.197V30.264H58.981V0.695999H64.613V30.264H79.461V0.695999H85.029ZM109.813 0.0559998C112.757 0.0559998 115.274 0.695999 117.365 1.976C119.498 3.256 121.12 5.06933 122.229 7.416C123.381 9.72 123.957 12.4293 123.957 15.544V18.936H100.469C100.554 22.8187 101.536 25.784 103.413 27.832C105.333 29.8373 108 30.84 111.413 30.84C113.589 30.84 115.509 30.648 117.173 30.264C118.88 29.8373 120.629 29.24 122.421 28.472V33.4C120.672 34.168 118.944 34.7227 117.237 35.064C115.53 35.448 113.504 35.64 111.157 35.64C107.914 35.64 105.034 34.9787 102.517 33.656C100.042 32.3333 98.101 30.3707 96.693 27.768C95.3277 25.1227 94.645 21.9013 94.645 18.104C94.645 14.3493 95.2637 11.128 96.501 8.44C97.781 5.752 99.5517 3.68267 101.813 2.232C104.117 0.781333 106.784 0.0559998 109.813 0.0559998ZM109.749 4.664C107.061 4.664 104.928 5.53866 103.349 7.288C101.813 8.99467 100.896 11.384 100.597 14.456H118.069C118.069 12.4933 117.77 10.7867 117.173 9.336C116.576 7.88533 115.658 6.75466 114.421 5.944C113.226 5.09066 111.669 4.664 109.749 4.664Z" fill="#A98F08"/>
</svg>
